<svg xmlns="http://www.w3.org/2000/svg" width="1024" height="1024" viewBox="-40.89099979400635 -39.63199996948242 1105.844970703125 1101.6539916992188" class="colorable-icon reset-top-left-margin" data-export-recolorable-svg="true" overflow="visible" xmlns:xlink="http://www.w3.org/1999/xlink" fill="rgb(0, 0, 0)" stroke="none"><g fill="none" stroke="rgb(255, 255, 255)" stroke-width="45" stroke-linecap="round" stroke-linejoin="round"><path d="M 427.141,1003.174 C 439.291,1006.99 463.797,1012.734 483.25,1015.726 C 501.412,1017.019 522.254,1017.034 541.052,1015.798 Q 555.564,1013.692 578.36,1008.783" data-line="nan" stroke-width="45.0" fill="none" stroke="rgb(255, 255, 255)"/><path d="M 443.841,1008.153 C 399.0,968.595 387.639,957.284 366.192,930.99 C 342.857,896.329 322.949,859.856 305.03,819.256 C 288.578,772.898 284.473,759.511 278.346,734.561" data-line="nan" stroke-width="45.0" fill="none" stroke="rgb(255, 255, 255)"/><path d="M 595.739,18.582 C 628.38,19.293 656.814,26.731 681.502,34.663 C 709.488,45.203 734.113,56.074 760.477,69.679 C 786.462,85.18 810.673,101.597 830.832,116.824 C 853.975,136.163 871.442,152.42 889.471,171.353 C 907.878,193.009 926.288,217.354 941.15,239.211 C 968.282,287.933 978.115,309.405 989.025,336.663 C 997.512,361.309 1004.459,385.207 1010.7,411.795 C 1015.452,438.865 1019.602,479.936 1019.954,518.469 C 1018.997,546.854 1016.158,574.152 1012.169,599.848 Q 1007.457,622.548 1000.18,650.433" data-line="nan" stroke-width="45.0" fill="none" stroke="rgb(255, 255, 255)"/><path d="M 427.141,1003.174 C 393.995,1003.408 367.79,996.822 333.991,985.83 C 305.27,974.58 276.434,960.976 247.644,944.996 C 223.239,929.473 199.249,912.25 175.539,893.098 C 151.62,871.291 133.455,852.553 116.866,833.322 C 98.403,809.057 81.996,784.361 66.634,757.24" data-line="nan" stroke-width="45.0" fill="none" stroke="rgb(255, 255, 255)"/><path d="M 595.739,18.582 C 564.378,10.111 544.094,6.691 529.012,5.542 C 502.715,5.328 482.893,6.228 467.016,8.463 Q 448.924,12.497 421.922,20.701" data-line="nan" stroke-width="45.0" fill="none" stroke="rgb(255, 255, 255)"/><path d="M 753.522,689.599 C 761.816,641.264 767.733,590.757 770.598,547.37 C 771.63,489.569 767.89,424.2 763.235,380.785 C 754.512,327.813 748.042,296.955 743.196,279.52 L 742.585,273.754" data-line="nan" stroke-width="45.0" fill="none" stroke="rgb(255, 255, 255)"/><path d="M 1000.18,650.433 C 989.471,683.527 977.673,713.859 966.483,739.446 C 950.238,768.422 933.349,795.516 915.63,820.183 Q 896.137,844.156 873.968,868.438" data-line="nan" stroke-width="45.0" fill="none" stroke="rgb(255, 255, 255)"/><path d="M 16.348,625.749 C 10.015,592.788 5.264,554.453 4.109,525.552 C 4.333,489.569 6.531,458.386 10.875,427.483 C 17.062,397.739 26.057,365.187 37.49,332.511 C 52.174,297.946 65.426,271.73 85.083,237.589 C 105.241,208.851 122.251,187.25 148.04,158.807 L 167.031,140.095" data-line="nan" stroke-width="45.0" fill="none" stroke="rgb(255, 255, 255)"/><path d="M 167.031,140.095 C 195.654,115.711 228.076,91.846 261.916,70.767 C 293.451,54.43 311.343,46.525 333.396,38.047 C 377.91,24.017 387.055,21.678 421.922,20.701" data-line="nan" stroke-width="45.0" fill="none" stroke="rgb(255, 255, 255)"/><path d="M 270.631,319.556 C 260.884,374.48 254.046,432.428 251.701,483.147 C 251.577,536.131 253.003,574.665 258.878,632.036 Q 266.294,677.426 278.482,739.259" data-line="nan" stroke-width="45.0" fill="none" stroke="rgb(255, 255, 255)"/><path d="M 966.483,739.446 L 57.246,739.031" data-line="0.0" stroke-width="45.0" fill="none" stroke="rgb(255, 255, 255)"/><path d="M 579.4461415959458,1010.0354405629638 A 512.1498393556595,512.1498393556595 0 0,0 751.7478508512296,689.3675497512389" data-line="1.0" stroke-width="45.0" fill="none" stroke="rgb(255, 255, 255)"/><path d="M 510.309,1017.022 L 510.198,5.368" data-line="3.0" stroke-width="45.0" fill="none" stroke="rgb(255, 255, 255)"/><path d="M 280.081,739.161 L 278.346,734.561" data-line="8.0" stroke-width="45.0" fill="none" stroke="rgb(255, 255, 255)"/><path d="M 744.52,739.379 L 653.549,751.921" data-line="10.0" stroke-width="45.0" fill="none" stroke="rgb(255, 255, 255)"/><path d="M 744.52,739.379 L 742.923,734.273" data-line="11.0" stroke-width="45.0" fill="none" stroke="rgb(255, 255, 255)"/><path d="M 66.66823419199784,757.2210149977209 A 501.8454862014625,501.8454862014625 0 0,1 16.337552180126295,625.7513901268876" data-line="14.0" stroke-width="45.0" fill="none" stroke="rgb(255, 255, 255)"/><path d="M 959.604,271.772 L 282.492,271.665" data-line="16.0" stroke-width="45.0" fill="none" stroke="rgb(255, 255, 255)"/><path d="M 278.72799999998557,271.8860000000775 A 7.479888651070134,7.479888651070134 0 0,1 281.95099999996955,273.3360000000392" data-line="18.0" stroke-width="45.0" fill="none" stroke="rgb(255, 255, 255)"/><path d="M 427.8561907228862,18.883552708649688 A 513.9102004105091,513.9102004105091 0 0,0 272.0278342993091,319.7556079456781" data-line="19.0" stroke-width="45.0" fill="none" stroke="rgb(255, 255, 255)"/><path d="M 278.171,271.673 L 65.426,271.73" data-line="22.0" stroke-width="45.0" fill="none" stroke="rgb(255, 255, 255)"/><path d="M 741.2833377688053,274.04558703570933 A 478.98320491706926,478.98320491706926 0 0,0 587.0656236122429,16.33681718806571" data-line="23.0" stroke-width="45.0" fill="none" stroke="rgb(255, 255, 255)"/><path d="M 278.728,271.886 L 278.171,271.673" data-line="40.0" stroke-width="45.0" fill="none" stroke="rgb(255, 255, 255)"/><path d="M 874.1007204306215,868.570697244629 A 518.5559295330484,518.5559295330484 0 0,1 567.8545589329325,1016.9475449105018" data-line="43.0" stroke-width="45.0" fill="none" stroke="rgb(255, 255, 255)"/></g></svg>